# xmcd
#
# Track frame offsets:
#	150
#	14212
#	27523
#	42795
#	56975
#	71172
#	84771
#	98501
#	112854
#	126105
#	139905
#	154103
#	168777
#	183309
#
# Disc length: 2619 seconds
#
# Revision: 0
# Processed by: cddbd v1.5.2PL0 Copyright (c) Steve Scherf et al.
# Submitted via: EasyCDDAExtractor 16.0.6.1
#
DISCID=b60a390e
DTITLE=Leonito - amor de novela
DYEAR=2011
DGENRE=sertanejo moda
TTITLE0=amor de novel
TTITLE1=aos trancos e barrancos
TTITLE2=o pau quebrou
TTITLE3=fera indomavel
TTITLE4=as borboletas
TTITLE5=vem meu dengo
TTITLE6=cama de espinho
TTITLE7=dama de vestido longo (dama entre aspas)
TTITLE8=voltei pra ficar
TTITLE9=barbaridade
TTITLE10=o vicio do coroa
TTITLE11=homem de pedra
TTITLE12=amor dividido
TTITLE13=onde estao os meus passos
EXTD=
EXTT0=
EXTT1=
EXTT2=
EXTT3=
EXTT4=
EXTT5=
EXTT6=
EXTT7=
EXTT8=
EXTT9=
EXTT10=
EXTT11=
EXTT12=
EXTT13=
PLAYORDER=
